<svg height="512" viewBox="0 0 512 512" width="512" xmlns="http://www.w3.org/2000/svg"><g id="flat"><path d="m448 376h-136l-16 16h-80l-16-16h-136v-280a16 16 0 0 1 16-16h352a16 16 0 0 1 16 16z" fill="#cbcbcb"/><path d="m312 376-16 16h-80l-16-16h-176v18a30 30 0 0 0 30 30h404a30 30 0 0 0 30-30v-18z" fill="#cbcbcb"/><path d="m96 112h320v232h-320z" fill="#8feaff"/><path d="m168 264h152v48h-152z" fill="#fbb540"/><g fill="#d18d28"><path d="m200 296h-8a8 8 0 0 1 0-16h8a8 8 0 0 1 0 16z"/><path d="m232 296h-8a8 8 0 0 1 0-16h8a8 8 0 0 1 0 16z"/><path d="m264 296h-8a8 8 0 0 1 0-16h8a8 8 0 0 1 0 16z"/><path d="m296 296h-8a8 8 0 0 1 0-16h8a8 8 0 0 1 0 16z"/></g><path d="m288 228.061a131.952 131.952 0 0 1 -64 0v-40h64z" fill="#0a6fa2"/><path d="m256 208-56-32 56-32 56 32z" fill="#0a9acd"/><path d="m312 216a8 8 0 0 1 -8-8v-24h-48a8 8 0 0 1 0-16h56a8 8 0 0 1 8 8v32a8 8 0 0 1 -8 8z" fill="#0a6fa2"/><path d="m146.447 216.544a7.987 7.987 0 0 1 -6.512-3.346 63.935 63.935 0 0 1 0-74.4 8 8 0 1 1 13.011 9.31 47.942 47.942 0 0 0 0 55.776 8 8 0 0 1 -6.5 12.656z" fill="#41dfd0"/><path d="m176.006 200a7.99 7.99 0 0 1 -6.513-3.346 31.976 31.976 0 0 1 0-37.2 8 8 0 0 1 13.012 9.311 15.977 15.977 0 0 0 0 18.584 8 8 0 0 1 -6.5 12.656z" fill="#41dfd0"/><path d="m320 264h48v48h-48z" fill="#ea9d2d"/><path d="m64 368h144l16 16h64l16-16h144v8h-136l-16 16h-80l-16-16h-136z" fill="#a8a8a8"/><path d="m96 336h320v8h-320z" fill="#43dcfe"/></g></svg>